# xmcd CD database file
#
# Track frame offsets:
#	150
#	43753
#	89571
#	140674
#
# Disc length: 2514 seconds
#
# Revision: 0
# Processed by: cddbd v1.5.2PL0 Copyright (c) Steve Scherf et al.
# Submitted via: CDex 1.51
#
DISCID=3609d004
DTITLE=Ambulance - Worthless Originals
DYEAR=2005
DGENRE=Jazz
TTITLE0=Loose Connection
TTITLE1=Thumb Screw -- Tom Thumb
TTITLE2=Roses
TTITLE3=Forgotten
EXTD=YEAR: 2005
EXTT0=
EXTT1=
EXTT2=
EXTT3=
PLAYORDER=
